<svg xmlns="http://www.w3.org/2000/svg" viewBox="0 0 16 16" id="Satellite--Streamline-Font-Awesome" height="16" width="16">
  <desc>
    Satellite Streamline Icon: https://streamlinehq.com
  </desc>
<!--! Font Awesome Free 6.5.2 by @fontawesome - https://fontawesome.com License - https://fontawesome.com/license/free (Icons: CC BY 4.0, Fonts: SIL OFL 1.1, Code: MIT License) Copyright 2024 Fonticons, Inc.-->
  <path d="M7.288725 0.37608125c-0.288109375 -0.288109375 -0.753984375 -0.288109375 -1.039028125 0l-2.942375 2.942375c-0.28810625 0.28810625 -0.28810625 0.75398125 0 1.039025l2.7400875 2.7400875 -0.475071875 0.47506875c-0.757046875 -0.34940625 -1.59685 -0.545565625 -2.482628125 -0.545565625 -0.971596875 0 -1.884959375 0.236003125 -2.691046875 0.649775 -0.275846875 0.144053125 -0.315690625 0.51185 -0.0950125 0.729465625l3.297909375 3.300975 -0.50265625 0.50265625c-0.0796875 -0.02145625 -0.16550625 -0.033715625 -0.254390625 -0.033715625 -0.5425 0 -0.98079375 0.438290625 -0.98079375 0.980790625S2.3020125 14.1378125 2.8445125 14.1378125s0.980790625 -0.438290625 0.980790625 -0.98079375c0 -0.088884375 -0.012259375 -0.1716375 -0.033715625 -0.254390625l0.50265625 -0.50265625L7.59215625 15.697884375c0.220678125 0.220678125 0.588475 0.18083125 0.7294625 -0.095015625 0.4168375 -0.8060875 0.652840625 -1.71945 0.652840625 -2.691046875 0 -0.885778125 -0.196159375 -1.725578125 -0.545565625 -2.4795625l0.475071875 -0.475071875 2.737021875 2.7400875c0.28810625 0.28810625 0.75398125 0.28810625 1.039025 0l2.942375 -2.942375c0.28810625 -0.28810625 0.28810625 -0.753984375 0 -1.039025l-2.7400875 -2.7400875 1.6857375 -1.685734375c0.38311875 -0.383121875 0.38311875 -1.0053125 0 -1.388434375l-1.4711875 -1.4711875c-0.383121875 -0.383121875 -1.0053125 -0.383121875 -1.388434375 0l-1.685734375 1.6857375 -2.73395625 -2.7400875ZM12.16203125 11.1341375l-2.219040625 -2.219040625 1.90335 -1.90335 2.219040625 2.22210625 -1.90335 1.90335ZM7.083371875 6.058540625l-2.21904375 -2.219040625 1.90335 -1.903346875 2.219040625 2.219040625 -1.903346875 1.903346875Z" fill="#000000" stroke-width="0.0313"></path>
</svg>